<?xml version="1.0" encoding="UTF-8"?>
<svg version="1.1" xmlns="http://www.w3.org/2000/svg" width="48" height="48">
<path d="M0 0 C0.95648438 -0.02578125 1.91296875 -0.0515625 2.8984375 -0.078125 C6.00392147 0.29560086 7.33036066 1.18373709 9.625 3.25 C10.24375 2.940625 10.8625 2.63125 11.5 2.3125 C16.56372209 -0.21936105 20.96663822 -0.48319617 26.625 0.25 C29.80352316 1.89448689 32.00301764 4.00603527 33.625 7.25 C34.28202315 11.68490624 34.71313886 16.2047755 32.5546875 20.26171875 C30.69705382 22.41339998 28.70547992 24.31018145 26.625 26.25 C24.79924092 28.05729042 22.98655759 29.87715813 21.17431641 31.69799805 C19.90151224 32.97257852 18.62260832 34.24109959 17.33740234 35.50317383 C16.7439502 36.08736084 16.15049805 36.67154785 15.5390625 37.2734375 C15.0023291 37.79856934 14.4655957 38.32370117 13.91259766 38.86474609 C12.51223997 40.2410379 12.51223997 40.2410379 11.625 42.25 C10.965 42.25 10.305 42.25 9.625 42.25 C8.390625 40.9921875 8.390625 40.9921875 6.875 39.125 C2.64801676 34.12456876 -1.99164454 29.57914582 -6.66308594 24.99951172 C-7.25637695 24.41443848 -7.84966797 23.82936523 -8.4609375 23.2265625 C-9.2660376 22.43886475 -9.2660376 22.43886475 -10.08740234 21.63525391 C-13.2173471 18.26792237 -12.75732504 14.39541919 -12.734375 10.0234375 C-12.17789254 5.72884463 -10.54328113 4.11654007 -7.375 1.25 C-4.80935275 -0.03282363 -2.86466931 0.04608047 0 0 Z " fill="#F55274" transform="translate(13.375,5.75)"/>
<path d="M0 0 C3.16819146 1.67329724 5.37397054 3.74794109 7 7 C7.65702315 11.43490624 8.08813886 15.9547755 5.9296875 20.01171875 C4.07289458 22.16242612 2.07620262 24.05764063 0 26 C-1.18676899 27.19740189 -2.36864063 28.39966791 -3.546875 29.60546875 C-6.04846256 32.15485531 -8.55431092 34.6991526 -11.0859375 37.21875 C-11.8910376 38.0221582 -11.8910376 38.0221582 -12.71240234 38.84179688 C-14 40 -14 40 -15 40 C-14.57855499 35.27413353 -14.03114894 30.80038427 -12.81640625 26.2109375 C-12.61208984 25.41429688 -12.40777344 24.61765625 -12.19726562 23.796875 C-11.77036982 22.16810331 -11.31934349 20.54548516 -10.84570312 18.9296875 C-9.6569794 14.24913762 -9.6569794 14.24913762 -11.24169922 9.85644531 C-12.74164654 8.10202295 -14.26736655 6.52258915 -16 5 C-11.73890035 -0.87737883 -6.99694279 -1.3112865 0 0 Z " fill="#F55275" transform="translate(40,6)"/>
<path d="M0 0 C3.43336243 1.47144104 5.82753007 2.92474812 8 6 C7.96508323 9.135367 7.16365012 12.0404186 6.375 15.0625 C5.97027297 16.76797295 5.5666223 18.4737017 5.1640625 20.1796875 C4.96200195 21.00436523 4.75994141 21.82904297 4.55175781 22.67871094 C3.8421658 25.66402106 3.27867464 28.66537482 2.75 31.6875 C2.60046875 32.53699219 2.4509375 33.38648438 2.296875 34.26171875 C2.19890625 34.83535156 2.1009375 35.40898438 2 36 C1.34 36 0.68 36 0 36 C-0.09796875 35.42636719 -0.1959375 34.85273437 -0.296875 34.26171875 C-0.44640625 33.41222656 -0.5959375 32.56273437 -0.75 31.6875 C-0.92015625 30.6975 -1.0903125 29.7075 -1.265625 28.6875 C-1.83499602 25.82853061 -2.49062911 23.06417362 -3.234375 20.25 C-3.44223633 19.41637939 -3.65009766 18.58275879 -3.86425781 17.72387695 C-4.28354232 16.05108636 -4.73033294 14.38491873 -5.20605469 12.72729492 C-5.78232878 10.35102038 -6.17720746 8.44171434 -6 6 C-4.27623987 3.3609989 -2.52572404 1.98039726 0 0 Z " fill="#EB0406" transform="translate(23,12)"/>
</svg>
