<?xml version="1.0" standalone="no"?>
<!DOCTYPE svg PUBLIC "-//W3C//DTD SVG 20010904//EN"
 "http://www.w3.org/TR/2001/REC-SVG-20010904/DTD/svg10.dtd">
<svg version="1.0" xmlns="http://www.w3.org/2000/svg"
 width="5000.000000pt" height="3735.000000pt" viewBox="0 0 5000.000000 3735.000000"
 preserveAspectRatio="xMidYMid meet">

<g transform="translate(0.000000,3735.000000) scale(0.100000,-0.100000)"
fill="#000000" stroke="none">
<path d="M26680 31240 c-1226 -88 -2374 -473 -3350 -1123 -848 -565 -1448
-1277 -1745 -2070 -26 -70 -52 -124 -56 -121 -5 3 -9 11 -9 19 0 26 -92 241
-162 377 -323 629 -924 1220 -1735 1706 -1023 613 -2319 1032 -3543 1147 -451
42 -794 44 -1195 6 -2007 -190 -3706 -1140 -4910 -2746 -538 -717 -953 -1524
-1253 -2435 -259 -784 -395 -1474 -477 -2420 -6 -80 -20 -389 -18 -430 1 -33
47 -208 57 -218 3 -2 13 12 22 32 10 20 23 36 30 36 6 0 207 -31 445 -70 239
-38 713 -115 1054 -170 341 -55 829 -134 1085 -175 256 -41 476 -75 488 -75
14 0 741 430 1683 996 l1660 996 542 79 c298 44 578 83 622 86 197 16 305 3
700 -84 17 -4 27 11 64 96 64 147 51 185 -80 234 -37 14 -81 33 -99 42 l-33
17 39 17 c136 61 354 475 610 1156 l52 139 133 -3 c125 -3 140 -5 223 -37 50
-19 113 -48 140 -63 79 -45 289 -134 416 -177 63 -21 117 -40 119 -42 9 -5
-21 -137 -51 -231 -17 -53 -55 -159 -86 -236 -30 -77 -81 -219 -114 -314 -65
-193 -98 -258 -160 -321 -58 -58 -100 -77 -214 -95 -123 -21 -175 -44 -214
-98 -28 -38 -67 -142 -84 -224 -6 -25 -4 -32 11 -37 10 -3 104 -28 208 -55
105 -27 214 -58 244 -70 30 -11 58 -18 62 -15 4 2 76 -34 159 -80 l152 -84
232 -289 c127 -158 497 -619 821 -1023 324 -404 797 -994 1050 -1310 l462
-575 139 -32 c76 -18 369 -87 649 -153 281 -67 679 -161 885 -210 807 -191
1614 -382 1795 -425 105 -25 347 -82 539 -128 l348 -82 -6 -52 -6 -53 359 0
359 0 57 -70 c31 -39 60 -70 64 -70 11 0 516 72 528 75 8 3 6 16 -5 49 -9 25
-14 48 -10 51 3 4 118 48 255 99 513 192 1085 406 1673 624 376 140 1125 419
1430 533 l295 111 915 1440 c503 793 960 1512 1014 1598 l99 157 76 35 c42 19
272 124 511 233 386 176 441 204 492 250 32 28 79 62 106 76 l48 24 -8 40 -8
40 -108 1 c-444 5 -842 341 -1011 854 -74 224 -106 479 -99 796 5 185 8 221
32 309 35 133 136 337 136 275 0 -15 128 -147 179 -184 25 -18 123 -77 216
-131 485 -277 626 -412 803 -765 120 -237 188 -436 237 -685 79 -409 23 -867
-180 -1480 -101 -306 -270 -724 -340 -839 l-32 -54 101 -21 c379 -79 893 -74
1526 15 439 61 725 176 935 376 148 139 223 275 277 498 8 36 13 117 12 235 0
146 -4 198 -22 278 -48 219 -121 399 -313 772 -194 379 -210 423 -290 830
-100 506 -210 847 -375 1165 -314 604 -755 936 -1397 1052 -166 30 -510 32
-662 3 -55 -10 -109 -19 -121 -19 -14 -1 -49 34 -119 119 -170 208 -293 344
-505 559 -294 299 -550 525 -849 750 -1104 833 -2370 1319 -3776 1451 -202 19
-669 27 -845 15z"/>
<path d="M8244 22067 c32 -403 64 -666 122 -1007 169 -1004 477 -1947 919
-2815 847 -1663 2097 -3437 3617 -5133 l155 -172 6 -278 c16 -657 17 -645 -88
-1804 -52 -579 -97 -1075 -100 -1103 -2 -27 -12 -129 -20 -225 -8 -96 -22
-245 -30 -330 -8 -85 -42 -456 -75 -825 -33 -368 -69 -769 -80 -890 -93 -1006
-170 -1878 -170 -1915 0 -25 -18 -142 -40 -260 -22 -118 -43 -233 -46 -256
l-6 -41 173 -46 c96 -25 405 -107 687 -182 283 -75 519 -134 524 -133 14 5
189 409 184 424 -3 8 -396 320 -554 439 -2 2 120 410 518 1730 78 259 211 702
296 985 86 283 198 655 249 825 51 171 150 499 220 730 69 231 162 539 206
685 44 146 91 302 105 348 14 46 29 82 33 80 5 -2 109 -95 232 -208 576 -530
1322 -1176 2248 -1950 l44 -36 33 -195 c19 -107 52 -300 75 -429 22 -129 105
-611 185 -1070 80 -459 156 -900 170 -980 14 -80 33 -194 44 -255 11 -60 26
-153 35 -205 23 -143 22 -140 49 -140 29 0 27 12 58 -349 l22 -264 261 6 c143
4 400 10 570 13 171 4 366 9 435 13 l125 6 12 135 c6 74 13 159 14 189 l3 53
-310 125 c-170 69 -313 129 -318 134 -6 5 6 9 30 9 l41 0 6 122 c4 66 7 239 7
383 0 456 13 1405 19 1405 4 0 121 -93 261 -207 327 -266 1268 -1019 1605
-1284 465 -367 564 -441 577 -433 58 34 1176 924 1913 1524 1435 1167 2770
2288 3664 3077 101 90 187 163 190 163 3 0 60 -44 126 -96 648 -518 1376
-1032 2100 -1484 867 -540 2626 -1552 3850 -2213 l120 -65 29 27 c15 14 110
116 209 226 170 188 197 215 197 201 0 -3 54 -396 121 -873 69 -502 116 -869
111 -871 -9 -3 -139 -134 -290 -292 l-71 -76 172 -181 171 -182 171 89 c93 49
249 131 345 182 l175 93 2 250 c3 287 41 2559 47 2802 l4 163 129 147 c544
624 1138 1330 1511 1796 79 97 146 177 150 177 4 -1 133 -233 287 -517 154
-284 379 -699 501 -922 560 -1030 1131 -2078 1438 -2641 254 -466 332 -617
322 -625 -10 -8 -62 -126 -192 -432 l-14 -33 207 -100 c114 -56 217 -103 229
-106 17 -5 64 43 275 281 140 158 253 292 251 298 -1 7 -31 91 -67 187 -58
160 -193 539 -782 2190 -112 316 -228 643 -258 725 -29 83 -124 348 -210 590
-86 242 -226 634 -310 870 -84 237 -224 628 -310 870 -86 242 -185 519 -219
615 -88 244 -88 244 -28 333 143 211 545 867 538 875 -2 2 -102 -29 -222 -68
-542 -175 -1587 -402 -2484 -539 -851 -130 -1622 -205 -2380 -232 -305 -11
-1094 -5 -1290 10 -78 5 -85 8 -83 26 1 12 16 158 33 325 142 1418 167 2746
105 5445 -30 1323 -36 1703 -37 2445 0 421 3 907 7 1080 7 312 7 315 -13 295
-10 -11 -239 -267 -508 -570 -422 -476 -636 -716 -678 -762 -14 -16 -4197
-946 -4207 -936 -3 5 -16 38 -28 75 l-22 66 -117 -65 c-64 -36 -119 -67 -121
-69 -2 -2 17 -27 43 -56 25 -29 46 -55 46 -58 0 -3 -80 -50 -177 -105 -97 -55
-202 -114 -233 -132 l-56 -32 -73 43 -73 44 -77 -44 -76 -43 -166 166 c-107
106 -165 171 -163 182 3 11 -53 57 -189 156 -105 77 -194 139 -197 138 -3 -1
-14 -61 -25 -132 -11 -71 -23 -133 -27 -136 -6 -7 -72 -2 -618 45 -124 11
-601 51 -1060 90 -459 39 -1325 113 -1925 164 l-1090 93 -625 453 c-344 249
-640 464 -658 478 l-33 25 6 -39 c8 -59 121 -941 160 -1249 44 -350 60 -493
85 -755 51 -541 131 -1022 300 -1815 88 -408 126 -553 193 -725 83 -214 99
-286 127 -560 28 -271 28 -289 2 -310 -29 -24 -224 -92 -352 -123 -464 -113
-895 -96 -1300 53 -58 22 -192 75 -298 119 -526 219 -1141 370 -1787 438 -241
25 -822 25 -1055 0 -355 -38 -696 -105 -1015 -197 -315 -92 -582 -192 -1075
-403 -492 -210 -656 -254 -795 -216 -93 26 -174 113 -215 234 -100 291 -49
894 136 1608 30 117 95 374 144 572 222 889 391 1474 655 2270 274 824 679
1926 909 2468 25 60 42 107 38 105 -5 -2 -94 -50 -198 -107 -104 -58 -499
-275 -879 -484 l-690 -379 -95 5 c-52 3 -239 11 -415 18 l-320 13 -1420 592
c-781 325 -1437 599 -1459 608 l-38 16 6 -83z"/>
<path d="M36576 21408 c9 -35 24 -103 34 -153 136 -657 305 -1271 461 -1682
156 -412 1247 -2833 1929 -4283 166 -352 201 -427 309 -655 l62 -130 20 44
c10 24 57 143 103 265 360 945 477 1508 477 2296 0 548 -49 940 -185 1483
-115 457 -110 443 -245 597 l-115 130 -30 -25 c-17 -14 -46 -37 -64 -51 l-32
-26 -48 38 c-26 21 -162 133 -302 249 -140 116 -435 359 -655 541 -220 181
-698 576 -1063 877 -364 301 -664 547 -666 547 -2 0 2 -28 10 -62z"/>
</g>
</svg>
